<svg width="10" height="10" viewBox="0 0 10 10" fill="none" xmlns="http://www.w3.org/2000/svg">
<g clip-path="url(#clip0_4_138)">
<g clip-path="url(#clip1_4_138)">
<path d="M2.91667 5H7.08333M3.33333 3.54167C3.33333 3.54167 3.75 3.75 4.16667 3.75C4.79167 3.75 5.20833 3.33333 5.83333 3.33333C6.25 3.33333 6.66667 3.54167 6.66667 3.54167M3.33333 6.45833C3.33333 6.45833 3.75 6.66667 4.16667 6.66667C4.79167 6.66667 5.20833 6.25 5.83333 6.25C6.25 6.25 6.66667 6.45833 6.66667 6.45833M8.75 5C8.75 7.07108 7.07108 8.75 5 8.75C2.92893 8.75 1.25 7.07108 1.25 5C1.25 2.92893 2.92893 1.25 5 1.25C7.07108 1.25 8.75 2.92893 8.75 5Z" stroke="#5B5B5B" stroke-width="0.75" stroke-linecap="round" stroke-linejoin="round"/>
</g>
</g>
<defs>
<clipPath id="clip0_4_138">
<rect width="10" height="10" fill="white"/>
</clipPath>
<clipPath id="clip1_4_138">
<rect width="10" height="10" fill="white"/>
</clipPath>
</defs>
</svg>
