<svg width="10" height="10" viewBox="0 0 10 10" fill="none" xmlns="http://www.w3.org/2000/svg">
<path d="M6.25275 1.3567C7.02013 1.19057 7.97213 1.19888 9.26763 1.52195C9.49088 1.57762 9.62658 1.8033 9.57079 2.026C9.515 2.24871 9.28879 2.38413 9.06554 2.32845C7.86108 2.02809 7.04229 2.03645 6.4295 2.16911C5.81479 2.30218 5.37292 2.56611 4.90479 2.85151L4.86975 2.87289C4.4185 3.14819 3.91881 3.45304 3.25864 3.56279C2.57389 3.67662 1.76501 3.57598 0.67868 3.14245C0.46503 3.05718 0.361115 2.81528 0.446584 2.60214C0.532051 2.389 0.774539 2.28533 0.988189 2.3706C1.98515 2.76846 2.63456 2.82375 3.12167 2.74277C3.6162 2.66056 3.99322 2.43298 4.47025 2.14216C4.93958 1.85602 5.48725 1.52242 6.25275 1.3567Z" fill="#5B5B5B"/>
<path d="M9.26763 3.18459C7.97213 2.86152 7.02013 2.85322 6.25275 3.01934C5.48725 3.18506 4.93958 3.51866 4.47025 3.8048C3.99322 4.09562 3.6162 4.32321 3.12167 4.40542C2.63456 4.48637 1.98515 4.43108 0.988189 4.03324C0.774539 3.94797 0.532051 4.05164 0.446584 4.26479C0.361115 4.47792 0.46503 4.71983 0.67868 4.80508C1.76501 5.23862 2.57389 5.33925 3.25864 5.22542C3.91881 5.11567 4.4185 4.81083 4.86975 4.53554L4.90479 4.51417C5.37292 4.22875 5.81479 3.96482 6.4295 3.83175C7.04229 3.69909 7.86108 3.69074 9.06554 3.9911C9.28879 4.04677 9.515 3.91136 9.57079 3.68865C9.62658 3.46594 9.49088 3.24026 9.26763 3.18459Z" fill="#5B5B5B"/>
<path fill-rule="evenodd" clip-rule="evenodd" d="M7.91658 4.17775C7.77192 4.17775 7.65138 4.25246 7.56725 4.3655C7.53771 4.40542 7.46942 4.49883 7.37871 4.62958C7.25804 4.80346 7.09654 5.04508 6.93433 5.31479C6.77292 5.58317 6.60638 5.88667 6.47896 6.18321C6.35696 6.46721 6.24954 6.77558 6.24996 7.08821C6.25025 7.17596 6.26075 7.26412 6.27517 7.3505C6.29925 7.49467 6.34817 7.69317 6.45017 7.89671C6.553 8.10192 6.71379 8.31975 6.96279 8.48533C7.21442 8.65267 7.53117 8.75 7.91658 8.75C8.302 8.75 8.61875 8.65267 8.87033 8.48533C9.11933 8.31975 9.28017 8.10192 9.383 7.89675C9.485 7.69317 9.53396 7.49467 9.55804 7.35054C9.5725 7.26404 9.58313 7.17562 9.58325 7.08779C9.58338 6.77517 9.47625 6.46725 9.35421 6.18321C9.22683 5.88667 9.06029 5.58317 8.89888 5.31479C8.73667 5.04508 8.57513 4.80346 8.45446 4.62958C8.36375 4.49883 8.29542 4.40542 8.26592 4.3655C8.18179 4.25246 8.06121 4.17775 7.91658 4.17775ZM8.58829 6.51071C8.48133 6.26171 8.33538 5.99367 8.18429 5.7425C8.09242 5.58975 8.00029 5.44592 7.91658 5.31975C7.83288 5.44592 7.74075 5.58975 7.64888 5.7425C7.49783 5.99367 7.35188 6.26171 7.24492 6.51071L7.23883 6.52479C7.16521 6.696 7.07821 6.89842 7.08338 7.08754C7.08838 7.23712 7.12867 7.39154 7.19554 7.52496C7.24892 7.63154 7.3225 7.72546 7.42504 7.79367C7.525 7.86012 7.677 7.91867 7.91658 7.91867C8.15617 7.91867 8.30817 7.86012 8.40813 7.79367C8.51067 7.72546 8.58425 7.6315 8.63767 7.52496C8.70454 7.39154 8.74483 7.23712 8.74983 7.0875C8.75504 6.89846 8.668 6.69604 8.59438 6.52487L8.58829 6.51071Z" fill="#5B5B5B"/>
<path d="M5.88733 4.80451C6.20412 4.70196 6.447 5.03167 6.29804 5.32884C6.23 5.46463 6.15346 5.58017 6.00129 5.63392C5.59417 5.77776 5.25692 5.9803 4.90479 6.19496L4.86975 6.21634C4.4185 6.49163 3.91882 6.79646 3.25864 6.90621C2.5739 7.02005 1.76502 6.91942 0.678683 6.48588C0.465033 6.40063 0.36112 6.15871 0.446588 5.94559C0.532058 5.73242 0.774542 5.62876 0.988196 5.71405C1.98515 6.11188 2.63457 6.16717 3.12167 6.08621C3.6162 6.00401 3.99322 5.77642 4.47025 5.48559C4.92358 5.20921 5.39012 4.96546 5.88733 4.80451Z" fill="#5B5B5B"/>
</svg>
