<svg width="10" height="10" viewBox="0 0 10 10" fill="none" xmlns="http://www.w3.org/2000/svg">
<g clip-path="url(#clip0_4_132)">
<mask id="path-1-inside-1_4_132" fill="white">
<path d="M4.61273 9.61539C4.61273 9.8278 4.78603 10 4.9998 10C5.21357 10 5.38688 9.8278 5.38688 9.61539H4.61273ZM5.38688 5.51288C5.38688 5.30048 5.21357 5.12827 4.9998 5.12827C4.78603 5.12827 4.61273 5.30048 4.61273 5.51288H5.38688ZM5.38688 4.16572C5.38688 3.9533 5.21357 3.78111 4.9998 3.78111C4.78603 3.78111 4.61273 3.9533 4.61273 4.16572H5.38688ZM4.61273 4.617C4.61273 4.8294 4.78603 5.00161 4.9998 5.00161C5.21357 5.00161 5.38688 4.8294 5.38688 4.617H4.61273ZM5.23055 4.92581C5.40216 4.7992 5.43803 4.55828 5.3106 4.38772C5.18318 4.21716 4.94071 4.18157 4.76905 4.30818L5.23055 4.92581ZM3.85144 4.9851C3.67979 5.11171 3.64395 5.35263 3.77138 5.52319C3.89881 5.6937 4.14127 5.72934 4.31292 5.60273L3.85144 4.9851ZM5.38688 4.617C5.38688 4.40459 5.21357 4.23239 4.9998 4.23239C4.78603 4.23239 4.61273 4.40459 4.61273 4.617H5.38688ZM4.61273 5.51288C4.61273 5.72529 4.78603 5.89749 4.9998 5.89749C5.21357 5.89749 5.38688 5.72529 5.38688 5.51288H4.61273ZM5.14416 5.15602C4.94577 5.07679 4.72039 5.17237 4.64065 5.36945C4.56091 5.56652 4.65711 5.79052 4.85545 5.86975L5.14416 5.15602ZM6.00223 6.32769C6.20062 6.40692 6.42601 6.31133 6.50574 6.11426C6.58548 5.91713 6.48928 5.69314 6.29094 5.61396L6.00223 6.32769ZM5.38688 9.61539V5.51288H4.61273V9.61539H5.38688ZM4.61273 4.16572V4.617H5.38688V4.16572H4.61273ZM4.76905 4.30818L3.85144 4.9851L4.31292 5.60273L5.23055 4.92581L4.76905 4.30818ZM4.61273 4.617V5.51288H5.38688V4.617H4.61273ZM4.85545 5.86975L6.00223 6.32769L6.29094 5.61396L5.14416 5.15602L4.85545 5.86975ZM1.77416 3.97444C1.77427 2.44541 2.86141 1.12936 4.37073 0.831153L4.21977 0.0767069C2.34819 0.446476 1.00014 2.07838 1 3.97439L1.77416 3.97444ZM4.37073 0.831153C5.88002 0.532952 7.39117 1.33564 7.97999 2.74835L8.69521 2.45402C7.96513 0.702272 6.09131 -0.293067 4.21977 0.0767069L4.37073 0.831153ZM7.97999 2.74835C8.56882 4.16106 8.07129 5.79031 6.79172 6.63974L7.22179 7.27932C8.80844 6.22605 9.42534 4.20577 8.69521 2.45402L7.97999 2.74835ZM6.79172 6.63974C5.51214 7.48916 3.8069 7.32219 2.71881 6.24092L2.17137 6.78481C3.5206 8.12556 5.63513 8.33264 7.22179 7.27932L6.79172 6.63974ZM2.71881 6.24092C2.1139 5.6398 1.77409 4.82453 1.77416 3.97444L1 3.97439C0.999923 5.02848 1.42128 6.03944 2.17137 6.78481L2.71881 6.24092Z"/>
</mask>
<path d="M4.61273 9.61539C4.61273 9.8278 4.78603 10 4.9998 10C5.21357 10 5.38688 9.8278 5.38688 9.61539H4.61273ZM5.38688 5.51288C5.38688 5.30048 5.21357 5.12827 4.9998 5.12827C4.78603 5.12827 4.61273 5.30048 4.61273 5.51288H5.38688ZM5.38688 4.16572C5.38688 3.9533 5.21357 3.78111 4.9998 3.78111C4.78603 3.78111 4.61273 3.9533 4.61273 4.16572H5.38688ZM4.61273 4.617C4.61273 4.8294 4.78603 5.00161 4.9998 5.00161C5.21357 5.00161 5.38688 4.8294 5.38688 4.617H4.61273ZM5.23055 4.92581C5.40216 4.7992 5.43803 4.55828 5.3106 4.38772C5.18318 4.21716 4.94071 4.18157 4.76905 4.30818L5.23055 4.92581ZM3.85144 4.9851C3.67979 5.11171 3.64395 5.35263 3.77138 5.52319C3.89881 5.6937 4.14127 5.72934 4.31292 5.60273L3.85144 4.9851ZM5.38688 4.617C5.38688 4.40459 5.21357 4.23239 4.9998 4.23239C4.78603 4.23239 4.61273 4.40459 4.61273 4.617H5.38688ZM4.61273 5.51288C4.61273 5.72529 4.78603 5.89749 4.9998 5.89749C5.21357 5.89749 5.38688 5.72529 5.38688 5.51288H4.61273ZM5.14416 5.15602C4.94577 5.07679 4.72039 5.17237 4.64065 5.36945C4.56091 5.56652 4.65711 5.79052 4.85545 5.86975L5.14416 5.15602ZM6.00223 6.32769C6.20062 6.40692 6.42601 6.31133 6.50574 6.11426C6.58548 5.91713 6.48928 5.69314 6.29094 5.61396L6.00223 6.32769ZM5.38688 9.61539V5.51288H4.61273V9.61539H5.38688ZM4.61273 4.16572V4.617H5.38688V4.16572H4.61273ZM4.76905 4.30818L3.85144 4.9851L4.31292 5.60273L5.23055 4.92581L4.76905 4.30818ZM4.61273 4.617V5.51288H5.38688V4.617H4.61273ZM4.85545 5.86975L6.00223 6.32769L6.29094 5.61396L5.14416 5.15602L4.85545 5.86975ZM1.77416 3.97444C1.77427 2.44541 2.86141 1.12936 4.37073 0.831153L4.21977 0.0767069C2.34819 0.446476 1.00014 2.07838 1 3.97439L1.77416 3.97444ZM4.37073 0.831153C5.88002 0.532952 7.39117 1.33564 7.97999 2.74835L8.69521 2.45402C7.96513 0.702272 6.09131 -0.293067 4.21977 0.0767069L4.37073 0.831153ZM7.97999 2.74835C8.56882 4.16106 8.07129 5.79031 6.79172 6.63974L7.22179 7.27932C8.80844 6.22605 9.42534 4.20577 8.69521 2.45402L7.97999 2.74835ZM6.79172 6.63974C5.51214 7.48916 3.8069 7.32219 2.71881 6.24092L2.17137 6.78481C3.5206 8.12556 5.63513 8.33264 7.22179 7.27932L6.79172 6.63974ZM2.71881 6.24092C2.1139 5.6398 1.77409 4.82453 1.77416 3.97444L1 3.97439C0.999923 5.02848 1.42128 6.03944 2.17137 6.78481L2.71881 6.24092Z" fill="#5B5B5B"/>
<path d="M1 3.97439L1.0001 2.47439L0.999801 5.47439L1 3.97439ZM4.37073 0.831153L2.8999 1.12556L5.84157 0.536845L4.37073 0.831153ZM7.22179 7.27932L5.97703 8.11632L8.46659 6.44238L7.22179 7.27932ZM5.38688 8.11539H4.61273V11.1154H5.38688V8.11539ZM4.61273 7.01288H5.38688V4.01288H4.61273V7.01288ZM4.61273 5.66572H5.38688V2.66572H4.61273V5.66572ZM5.38688 3.117H4.61273V6.117H5.38688V3.117ZM3.56745 5.20603L4.02895 5.82367L6.43216 4.02796L5.97066 3.41033L3.56745 5.20603ZM5.51454 4.7049L5.05306 4.08726L2.64981 5.88293L3.1113 6.50056L5.51454 4.7049ZM6.24599 6.43223L6.5347 5.7185L3.75361 4.59353L3.46491 5.30727L6.24599 6.43223ZM4.9004 5.05148L4.61169 5.76521L7.39278 6.89017L7.68149 6.17644L4.9004 5.05148ZM1.38728 2.47444L1.0002 2.47439L0.999801 5.47439L1.38688 5.47444L1.38728 2.47444ZM2.82439 0.74833L2.8999 1.12556L5.84155 0.53675L5.76604 0.159524L2.82439 0.74833ZM8.90843 3.98832L9.26604 3.84116L8.12438 1.06688L7.76677 1.21405L8.90843 3.98832ZM5.76197 7.79647L5.97698 8.11626L8.46659 6.44238L8.25158 6.12259L5.76197 7.79647ZM3.50229 7.57697L3.77601 7.30503L1.66161 5.17682L1.38789 5.44876L3.50229 7.57697ZM5.84157 0.536845L5.69061 -0.217601L2.74892 0.371015L2.89988 1.12546L5.84157 0.536845ZM0.999901 5.47439L1.77406 5.47444L1.77426 2.47444L1.0001 2.47439L0.999901 5.47439ZM8.55083 4.13548L9.26604 3.84116L8.12438 1.06688L7.40916 1.36121L8.55083 4.13548ZM5.54696 7.47674L5.97703 8.11632L8.46654 6.44231L8.03647 5.80273L5.54696 7.47674ZM1.66161 5.17682L1.11417 5.72071L3.22857 7.84892L3.77601 7.30503L1.66161 5.17682ZM5.23055 4.92581L7.01145 7.34002L7.01168 7.33985L5.23055 4.92581ZM4.76905 4.30818L2.98827 1.89389L2.98814 1.89399L4.76905 4.30818ZM3.85144 4.9851L5.63229 7.39934L5.63235 7.39929L3.85144 4.9851ZM3.77138 5.52319L1.36807 7.31877L1.36833 7.31911L3.77138 5.52319ZM4.31292 5.60273L6.09371 8.01702L6.09382 8.01694L4.31292 5.60273ZM5.14416 5.15602L4.03152 7.94206L4.0316 7.94209L5.14416 5.15602ZM4.85545 5.86975L3.74256 8.65569L3.74289 8.65583L4.85545 5.86975ZM6.00223 6.32769L7.11487 3.54165L7.11479 3.54162L6.00223 6.32769ZM6.50574 6.11426L9.28673 7.23947L9.28683 7.23922L6.50574 6.11426ZM6.29094 5.61396L5.17838 8.40003L5.17867 8.40015L6.29094 5.61396ZM1 3.97439L-2 3.97417L-2 3.97417L1 3.97439ZM4.37073 0.831153L3.78924 -2.11195L3.78924 -2.11195L4.37073 0.831153ZM8.69521 2.45402L5.92608 3.60812L5.92611 3.60819L8.69521 2.45402ZM7.22179 7.27932L5.5626 4.7799L5.56255 4.77994L7.22179 7.27932ZM2.71881 6.24092L4.83345 4.11295L4.83345 4.11294L2.71881 6.24092ZM1.77416 3.97444L-1.22584 3.97422L-1.22584 3.97422L1.77416 3.97444ZM4.21977 0.0767069L4.80124 3.01982L4.80125 3.01981L4.21977 0.0767069ZM7.97999 2.74835L10.7491 1.59418L10.7491 1.59417L7.97999 2.74835ZM2.17137 6.78481L4.28599 4.65682L4.28599 4.65682L2.17137 6.78481ZM1.61273 9.61539C1.61273 11.5027 3.1473 13 4.9998 13V7C6.42477 7 7.61273 8.15288 7.61273 9.61539H1.61273ZM4.9998 13C6.85231 13 8.38688 11.5027 8.38688 9.61539H2.38688C2.38688 8.15288 3.57484 7 4.9998 7V13ZM8.38688 5.51288C8.38688 3.62556 6.85231 2.12827 4.9998 2.12827V8.12827C3.57484 8.12827 2.38688 6.97539 2.38688 5.51288H8.38688ZM4.9998 2.12827C3.1473 2.12827 1.61273 3.62556 1.61273 5.51288H7.61273C7.61273 6.97539 6.42477 8.12827 4.9998 8.12827V2.12827ZM8.38688 4.16572C8.38688 2.27836 6.85229 0.781107 4.9998 0.781107V6.78111C3.57486 6.78111 2.38688 5.62824 2.38688 4.16572H8.38688ZM4.9998 0.781107C3.14732 0.781107 1.61273 2.27836 1.61273 4.16572H7.61273C7.61273 5.62824 6.42475 6.78111 4.9998 6.78111V0.781107ZM1.61273 4.617C1.61273 6.50432 3.1473 8.00161 4.9998 8.00161V2.00161C6.42477 2.00161 7.61273 3.15449 7.61273 4.617H1.61273ZM4.9998 8.00161C6.85231 8.00161 8.38688 6.50432 8.38688 4.617H2.38688C2.38688 3.15449 3.57484 2.00161 4.9998 2.00161V8.00161ZM7.01168 7.33985C8.51774 6.22865 8.8405 4.10009 7.71395 2.59219L2.90726 6.18325C2.03556 5.01647 2.28658 3.36975 3.44942 2.51178L7.01168 7.33985ZM7.71395 2.59219C6.59573 1.09544 4.48291 0.791441 2.98827 1.89389L6.54984 6.72247C5.39851 7.57169 3.77062 7.33888 2.90726 6.18325L7.71395 2.59219ZM2.07058 2.57085C0.563939 3.68222 0.24162 5.81106 1.36807 7.31877L6.17469 3.72761C7.04628 4.8942 6.79564 6.54119 5.63229 7.39934L2.07058 2.57085ZM1.36833 7.31911C2.48615 8.81483 4.59854 9.11985 6.09371 8.01702L2.53214 3.18843C3.68399 2.33883 5.31147 2.57258 6.17443 3.72727L1.36833 7.31911ZM8.38688 4.617C8.38688 2.72967 6.85231 1.23239 4.9998 1.23239V7.23239C3.57484 7.23239 2.38688 6.07951 2.38688 4.617H8.38688ZM4.9998 1.23239C3.1473 1.23239 1.61273 2.72967 1.61273 4.617H7.61273C7.61273 6.07951 6.42477 7.23239 4.9998 7.23239V1.23239ZM1.61273 5.51288C1.61273 7.40021 3.1473 8.89749 4.9998 8.89749V2.89749C6.42477 2.89749 7.61273 4.05037 7.61273 5.51288H1.61273ZM4.9998 8.89749C6.85231 8.89749 8.38688 7.40021 8.38688 5.51288H2.38688C2.38688 4.05037 3.57484 2.89749 4.9998 2.89749V8.89749ZM6.2568 2.36997C4.53615 1.68281 2.56349 2.5047 1.85966 4.24424L7.42164 6.49466C6.87728 7.84005 5.35539 8.47076 4.03152 7.94206L6.2568 2.36997ZM1.85966 4.24424C1.15135 5.99484 2.01364 7.96505 3.74256 8.65569L5.96834 3.08381C7.30058 3.61599 7.97047 5.13821 7.42164 6.49466L1.85966 4.24424ZM4.88959 9.11373C6.61024 9.8009 8.5829 8.97901 9.28673 7.23947L3.72476 4.98905C4.26911 3.64366 5.791 3.01295 7.11487 3.54165L4.88959 9.11373ZM9.28683 7.23922C9.99473 5.48919 9.13324 3.51841 7.40321 2.82777L5.17867 8.40015C3.84532 7.86787 3.17624 6.34508 3.72465 4.9893L9.28683 7.23922ZM8.38688 9.61539V5.51288H2.38688V9.61539H8.38688ZM1.61273 5.51288V9.61539H7.61273V5.51288H1.61273ZM1.61273 4.16572V4.617H7.61273V4.16572H1.61273ZM8.38688 4.617V4.16572H2.38688V4.617H8.38688ZM2.98814 1.89399L2.07052 2.5709L5.63235 7.39929L6.54997 6.72238L2.98814 1.89399ZM6.09382 8.01694L7.01145 7.34002L3.44966 2.51161L2.53202 3.18852L6.09382 8.01694ZM1.61273 4.617V5.51288H7.61273V4.617H1.61273ZM8.38688 5.51288V4.617H2.38688V5.51288H8.38688ZM3.74289 8.65583L4.88968 9.11377L7.11479 3.54162L5.96801 3.08367L3.74289 8.65583ZM7.4035 2.82788L6.25672 2.36994L4.0316 7.94209L5.17838 8.40003L7.4035 2.82788ZM4.77416 3.97467C4.77416 3.8913 4.83544 3.79733 4.95221 3.77426L3.78924 -2.11195C0.88737 -1.53861 -1.22562 0.999514 -1.22584 3.97422L4.77416 3.97467ZM3.63829 -2.8664C0.374153 -2.2215 -1.99975 0.632484 -2 3.97417L4 3.97461C4.00003 3.52427 4.32222 3.11446 4.80124 3.01982L3.63829 -2.8664ZM4.95221 3.77426C5.0721 3.75057 5.17541 3.81738 5.2109 3.90252L10.7491 1.59417C9.60693 -1.1461 6.68794 -2.68467 3.78924 -2.11195L4.95221 3.77426ZM11.4643 1.29993C10.1809 -1.77948 6.89921 -3.51068 3.63828 -2.8664L4.80125 3.01981C5.28342 2.92455 5.74934 3.18403 5.92608 3.60812L11.4643 1.29993ZM5.2109 3.90252C5.24395 3.98182 5.22103 4.08157 5.13252 4.14032L8.45091 9.13915C10.9216 7.49906 11.8937 4.34029 10.7491 1.59418L5.2109 3.90252ZM8.88097 9.77874C11.6587 7.93477 12.7502 4.38497 11.4643 1.29986L5.92611 3.60819C6.1005 4.02658 5.95814 4.51733 5.5626 4.7799L8.88097 9.77874ZM5.13252 4.14032C5.03742 4.20346 4.90942 4.18844 4.83345 4.11295L0.60417 8.3689C2.70437 10.4559 5.98686 10.7749 8.45091 9.13915L5.13252 4.14032ZM0.0567464 8.91281C2.41806 11.2593 6.10984 11.6184 8.88103 9.7787L5.56255 4.77994C5.16041 5.0469 4.62314 4.99185 4.28599 4.65682L0.0567464 8.91281ZM4.83345 4.11294C4.79324 4.07298 4.77415 4.02288 4.77416 3.97466L-1.22584 3.97422C-1.22596 5.62619 -0.565446 7.20662 0.604177 8.36891L4.83345 4.11294ZM-2 3.97417C-2.00014 5.83012 -1.25807 7.60626 0.0567489 8.91281L4.28599 4.65682C4.10063 4.47262 3.99998 4.22684 4 3.97461L-2 3.97417Z" fill="#5B5B5B" mask="url(#path-1-inside-1_4_132)"/>
</g>
<defs>
<clipPath id="clip0_4_132">
<rect width="10" height="10" fill="white"/>
</clipPath>
</defs>
</svg>
