<svg width="10" height="10" viewBox="0 0 10 10" fill="none" xmlns="http://www.w3.org/2000/svg">
<path d="M5.00002 1.82758C5.18835 1.82338 5.33902 1.66852 5.33902 1.4509V0.421328C5.33902 0.203685 5.18835 0.0488281 5.00002 0.0488281C4.81168 0.0488281 4.66102 0.203685 4.66102 0.421328V1.4509C4.66102 1.66852 4.81168 1.83176 5.00002 1.82758ZM7.1596 2.71904C7.29353 2.84877 7.51118 2.84877 7.66603 2.69811L8.39423 1.96988C8.54912 1.81501 8.54493 1.59738 8.41523 1.46345C8.28546 1.32952 8.06784 1.32952 7.91294 1.48438L7.18473 2.21261C7.02987 2.36747 7.02568 2.58929 7.1596 2.71904ZM2.334 2.69811C2.48885 2.84877 2.71485 2.85297 2.84043 2.71904C2.97016 2.58511 2.97016 2.36747 2.8195 2.21261L2.09127 1.48438C1.93221 1.32952 1.71877 1.3337 1.58902 1.46345C1.45091 1.59319 1.45091 1.81501 1.60577 1.96988L2.334 2.69811ZM1.06587 6.7369H9.56612C9.7126 6.7369 9.82978 6.6197 9.82978 6.46904C9.82978 6.31836 9.7126 6.20536 9.56612 6.20536H6.85409C7.12614 5.83286 7.28935 5.37249 7.28935 4.87863C7.28935 3.62306 6.25141 2.58511 5.00002 2.58511C3.7528 2.58511 2.71068 3.62306 2.71068 4.87863C2.71068 5.37249 2.87389 5.83286 3.14594 6.20536H1.06587C0.919373 6.20536 0.802194 6.31836 0.802194 6.46904C0.802194 6.6197 0.919373 6.7369 1.06587 6.7369ZM3.3845 4.87863C3.3845 3.99136 4.11275 3.26311 5.00002 3.26311C5.8873 3.26311 6.61553 3.99136 6.61553 4.87863C6.61553 5.43108 6.33093 5.92076 5.90403 6.20536H4.10019C3.6691 5.92076 3.3845 5.43108 3.3845 4.87863ZM0.542712 5.11301H1.57228C1.78993 5.11301 1.95314 4.95815 1.94896 4.76981C1.94477 4.58567 1.78993 4.43081 1.57228 4.43081H0.542712C0.329247 4.43081 0.170212 4.58567 0.170212 4.76981C0.170212 4.95815 0.329247 5.11301 0.542712 5.11301ZM8.42775 5.11301H9.45735C9.67498 5.11301 9.82978 4.95815 9.82978 4.76981C9.82978 4.58567 9.67498 4.43499 9.45735 4.43081H8.42775C8.21012 4.43081 8.04693 4.58567 8.05112 4.76981C8.05523 4.95815 8.21012 5.11301 8.42775 5.11301ZM0.43389 8.34404H8.93414C9.08484 8.34404 9.1978 8.23102 9.1978 8.08036C9.1978 7.92968 9.08484 7.81251 8.93414 7.81251H0.43389C0.287408 7.81251 0.170212 7.92968 0.170212 8.08036C0.170212 8.23102 0.287408 8.34404 0.43389 8.34404ZM1.06587 9.95118H9.56612C9.7126 9.95118 9.82978 9.83817 9.82978 9.68751C9.82978 9.53683 9.7126 9.42383 9.56612 9.42383H1.06587C0.919373 9.42383 0.802194 9.53683 0.802194 9.68751C0.802194 9.83817 0.919373 9.95118 1.06587 9.95118Z" fill="#5B5B5B"/>
</svg>
